<svg width="41" height="41" fill="none" xmlns="http://www.w3.org/2000/svg"><circle cx="20.5" cy="20.5" r="20" stroke="#F37021"/><path d="m27.75 24.89-3.473-3.157a.855.855 0 0 0-1.188.037l-2.044 2.102c-.492-.094-1.481-.402-2.5-1.418-1.018-1.019-1.326-2.01-1.417-2.499l2.1-2.045a.854.854 0 0 0 .037-1.188l-3.156-3.471a.854.854 0 0 0-1.188-.075l-1.854 1.59a.855.855 0 0 0-.248.554c-.013.214-.257 5.272 3.666 9.196 3.421 3.421 7.708 3.671 8.888 3.671.173 0 .278-.005.307-.006a.847.847 0 0 0 .553-.249l1.589-1.854a.852.852 0 0 0-.073-1.188Z" fill="#F37021"/></svg>