<svg width="48" height="48" fill="none" xmlns="http://www.w3.org/2000/svg"><circle cx="24" cy="24" r="24" fill="#F37021"/><path d="m29.902 19.542.005.004c.434.36 1.211 1.003 1.832 1.718.31.358.565.714.719 1.043.154.332.183.58.132.763-.04.135-.14.25-.342.365-.176.1-.372.17-.595.25l-.166.06c-1.187.43-2.407.77-3.647 1.021-.536.11-1.246.25-1.768.177-.255-.035-.37-.11-.418-.172-.038-.048-.11-.185-.029-.552.059-.257.198-.517.396-.792.162-.224.343-.433.533-.65l.139-.16.002-.003.217-.255c.855-1.008 1.7-2.005 2.677-2.794l.09.014.128-.052c.023-.01.04-.01.05-.009.005 0 .01.002.016.005a.122.122 0 0 1 .029.019Zm-2.267 11.396c.466.846.95 1.7 1.604 2.241l.004-.002.105-.105h.219c.536-.095 1.183-.482 1.747-1.043.574-.572.98-1.243 1.088-1.793a.681.681 0 0 0-.17-.617c-.17-.198-.453-.382-.832-.55a9.318 9.318 0 0 0-1.203-.413l-.332-.093a11.704 11.704 0 0 1-.759-.225l.165-.472-1.636 3.072Zm0 0-.002-.003m.002.003-.002-.003m0 0a20.716 20.716 0 0 0-.27-.468m.27.468-.27-.468m0 0a19.78 19.78 0 0 1-.49-.878m.49.878-.49-.878m0 0c-.243-.472-.419-.912-.468-1.294l.468 1.294Zm-5.531 6.095a.29.29 0 0 1 .058.024c.603.188 1.727.492 2.31.106.424-.281.452-.79.478-1.251l.01-.157c.091-1.225.13-2.46.144-3.69l-3 4.968Zm0 0c-1.268-.222-2.816-.806-2.965-1.978a.447.447 0 0 1 .12-.347m2.845 2.325-2.845-2.325m0 0a2.02 2.02 0 0 1 .12-.202c.175-.242.374-.458.575-.677l.048-.052m-.743.931.743-.93m0 0c.366-.546.762-1.071 1.181-1.578l-1.181 1.577Zm3.639-3.353c.31-.129.466-.104.533-.079.067.026.147.09.226.257.17.36.209.938.204 1.457a58.198 58.198 0 0 1-.143 3.657v.004l-.012.188c-.011.195-.02.352-.056.505-.04.174-.102.269-.197.332-.135.089-.405.131-.812.082a6.104 6.104 0 0 1-1.038-.238.73.73 0 0 0-.12-.042l-.017-.005-.018-.003c-.604-.105-1.246-.293-1.742-.575-.484-.274-.749-.588-.809-.933l.032-.035.028-.054c.034-.063.062-.11.088-.149.156-.215.335-.41.54-.632l.042-.046.026-.028.02-.032c.357-.53.743-1.042 1.152-1.537.13-.156.254-.314.378-.472.198-.253.399-.508.63-.766.363-.406.716-.712 1.065-.856Zm.423-6.066-.016-.01-.027-.032-.032-.026c-2.164-1.78-4.28-4.547-5.365-7.088-.173-.405-.183-.738-.106-1.022.08-.292.263-.573.54-.84.565-.545 1.442-.957 2.252-1.223 1.108-.365 1.693-.317 2.022-.102.329.216.594.728.705 1.836.187 1.926.273 3.867.258 5.802v.001c-.001.21.012.445.024.675l.003.051c.013.253.026.506.024.754-.003.516-.069.907-.226 1.15l-.05.077-.006-.004Zm-1.122 3.26v-.002a.134.134 0 0 0-.007-.026l-.072-.04-.059-.071c-.673-.814-1.658-1.426-2.65-1.997a20.39 20.39 0 0 1-.443-.264 12.85 12.85 0 0 0-.865-.493c-.475-.24-.88-.372-1.191-.35-.578.042-1.001.561-1.262 1.512-.249.909-.274 1.978-.224 2.608l6.774-.878Zm0 0c.055.241-.001.349-.084.438m.085-.439-.085.44m0 0c-.122.131-.335.25-.67.403m.67-.404-.67.404m0 0a25.595 25.595 0 0 1-3.552 1.267l.136.481 3.415-1.748Z" stroke="#F6F3EC"/></svg>