<svg width="50" height="50" fill="none" xmlns="http://www.w3.org/2000/svg"><circle cx="25" cy="25" r="25" fill="#F6F3EC"/><path d="M24.56 20.758c-.341.052-.66.178-.928.364a1.214 1.214 0 0 0-.374.39.999.999 0 0 0-.144.486.792.792 0 0 0 .125.428.976.976 0 0 0 .35.327c.295.177.623.312.971.4v-2.395Zm2.326 4.745a.792.792 0 0 0-.125-.428.976.976 0 0 0-.35-.327 3.583 3.583 0 0 0-.971-.4v2.394c.341-.052.66-.177.928-.364.157-.105.285-.238.374-.389.09-.151.139-.317.144-.486Zm8.746 5.055a2.123 2.123 0 0 0-1.715-.095l-4.301 1.647c.123.175.204.37.237.572.046.262.008.53-.107.776a1.56 1.56 0 0 1-.553.627c-.32.215-.716.333-1.125.333a2.01 2.01 0 0 1-.29-.02l-6.048-.833a.419.419 0 0 1-.262-.138.301.301 0 0 1-.07-.254.34.34 0 0 1 .162-.222.462.462 0 0 1 .3-.06l5.997.826a1.38 1.38 0 0 0 .861-.186.854.854 0 0 0 .285-.348.72.72 0 0 0 .048-.422.784.784 0 0 0-.201-.388.996.996 0 0 0-.4-.256l-4.898-1.724a1.195 1.195 0 0 0-.396-.067h-4.844c-.227 0-.447.063-.627.18l-1.034.67v-.143a.464.464 0 0 0-.173-.353.65.65 0 0 0-.418-.146h-1.469a.684.684 0 0 0-.226.038.608.608 0 0 0-.192.108.503.503 0 0 0-.128.162.434.434 0 0 0-.045.191v4.909c0 .065.015.13.045.191.03.06.073.116.128.162.055.047.12.083.192.108a.684.684 0 0 0 .226.039h1.47a.65.65 0 0 0 .417-.147.464.464 0 0 0 .173-.353v-.28l6.82 1.31a4.03 4.03 0 0 0 1.364.023 3.769 3.769 0 0 0 1.264-.434l9.537-4.901a.708.708 0 0 0 .267-.236.568.568 0 0 0 .097-.316.57.57 0 0 0-.099-.316.711.711 0 0 0-.27-.234Zm-7.314-13.846c.898-.826 2.168-2.255 1.192-3.528a.361.361 0 0 0-.197-.126.424.424 0 0 0-.247.01c-1.133.411-1.833.657-2.966.247l-.705-.29a.415.415 0 0 0-.281 0l-.705.29c-1.133.41-1.833.164-2.966-.246a.424.424 0 0 0-.247-.011.362.362 0 0 0-.197.126c-.976 1.273.294 2.702 1.192 3.528h6.127Z" fill="#F37021"/><path d="M25 29.983c8.381 0 8.497-2.688 7.599-6.388-.682-2.81-2.324-5.64-4.617-6.08h-5.963c-2.293.44-3.935 3.27-4.617 6.08-.9 3.7-.783 6.388 7.598 6.388Zm-2.099-6.474a1.988 1.988 0 0 1-.676-.663 1.627 1.627 0 0 1-.242-.85c.003-.308.088-.611.246-.888.159-.277.388-.521.672-.715a3.496 3.496 0 0 1 1.659-.6v-.502c0-.099.046-.193.129-.263a.485.485 0 0 1 .311-.109c.117 0 .229.04.311.109.083.07.129.164.129.263v.485c.78.086 1.537.28 2.241.574.069.025.13.062.181.107a.474.474 0 0 1 .119.158.413.413 0 0 1-.011.366.485.485 0 0 1-.128.153.591.591 0 0 1-.187.1.661.661 0 0 1-.434-.011 7.472 7.472 0 0 0-1.781-.485v2.612a5.21 5.21 0 0 1 1.659.638c.284.173.516.4.676.663.16.263.243.555.242.85a1.825 1.825 0 0 1-.246.888 2.19 2.19 0 0 1-.672.715 3.498 3.498 0 0 1-1.659.6v.503a.345.345 0 0 1-.129.262.485.485 0 0 1-.311.11.485.485 0 0 1-.311-.11.345.345 0 0 1-.129-.262v-.485a8.155 8.155 0 0 1-2.241-.575.575.575 0 0 1-.18-.107.474.474 0 0 1-.118-.158.413.413 0 0 1 .01-.365.487.487 0 0 1 .128-.152.589.589 0 0 1 .187-.1.66.66 0 0 1 .433.01 7.472 7.472 0 0 0 1.781.485v-2.613a5.21 5.21 0 0 1-1.659-.638Z" fill="#F37021"/></svg>