<svg width="543" height="134" fill="none" xmlns="http://www.w3.org/2000/svg"><path d="M162.623 55.236V10.125h4.962V31.52l23.329-21.395h6.509l-24.489 22.104 25.005 23.007h-6.96l-23.394-21.653v21.653h-4.962Zm38.872 0V22.95h4.769v32.287h-4.769Zm2.385-38.473c-.86 0-1.611-.323-2.256-.967-.644-.645-.967-1.396-.967-2.256 0-.902.323-1.654.967-2.255.645-.645 1.396-.967 2.256-.967.902 0 1.654.322 2.255.967.645.601.967 1.353.967 2.255 0 .86-.322 1.611-.967 2.256-.601.644-1.353.966-2.255.966Zm23.213 39.117c-2.793 0-4.941-.665-6.445-1.997-1.504-1.332-2.256-3.265-2.256-5.8V27.009h-6.96v-4.06h6.96v-8.184l4.705-1.225v9.41h9.731v4.06h-9.731v19.848c0 1.719.387 2.965 1.16 3.738.773.73 2.041 1.096 3.802 1.096.902 0 1.697-.065 2.385-.194a13.59 13.59 0 0 0 2.32-.644v4.189c-.817.3-1.74.515-2.771.644-.989.13-1.955.194-2.9.194Zm25.163-.064c-3.05 0-5.821-.73-8.313-2.19a16.699 16.699 0 0 1-5.929-6.059c-1.461-2.535-2.191-5.37-2.191-8.507 0-3.136.73-5.95 2.191-8.442a16.7 16.7 0 0 1 5.929-6.058c2.492-1.503 5.263-2.255 8.313-2.255 2.363 0 4.64.45 6.832 1.353a17.258 17.258 0 0 1 5.8 3.738l-3.029 3.48c-1.289-1.375-2.771-2.406-4.447-3.093a12.338 12.338 0 0 0-5.091-1.096c-2.191 0-4.189.558-5.994 1.676-1.761 1.074-3.179 2.556-4.253 4.446-1.031 1.848-1.547 3.931-1.547 6.252 0 2.32.516 4.425 1.547 6.315 1.074 1.89 2.513 3.394 4.318 4.511 1.804 1.074 3.802 1.611 5.993 1.611 1.762 0 3.416-.343 4.963-1.03 1.589-.688 3.071-1.698 4.446-3.03l2.965 3.223a19.11 19.11 0 0 1-5.8 3.802 17.144 17.144 0 0 1-6.703 1.353Zm18.09-.58V10.125l4.769-1.096v17.723c2.535-2.965 5.929-4.447 10.182-4.447 2.449 0 4.597.537 6.445 1.61a10.765 10.765 0 0 1 4.382 4.383c1.074 1.848 1.611 4.017 1.611 6.51v20.428h-4.704V35.774c0-2.879-.817-5.134-2.449-6.767-1.59-1.676-3.781-2.513-6.574-2.513-1.933 0-3.652.43-5.155 1.289-1.504.859-2.75 2.083-3.738 3.673v23.78h-4.769Zm50.514.58c-3.094 0-5.908-.73-8.443-2.19-2.491-1.505-4.489-3.524-5.993-6.059-1.461-2.535-2.191-5.37-2.191-8.507 0-3.093.709-5.886 2.127-8.377 1.417-2.535 3.329-4.533 5.735-5.994 2.406-1.503 5.091-2.255 8.056-2.255 2.878 0 5.456.752 7.733 2.255 2.32 1.461 4.146 3.459 5.478 5.994 1.375 2.492 2.062 5.284 2.062 8.377v1.483h-26.487c.258 2.105.924 3.995 1.998 5.67a12.425 12.425 0 0 0 4.318 3.996c1.762.946 3.695 1.418 5.8 1.418 1.676 0 3.308-.258 4.898-.773 1.59-.516 2.921-1.246 3.996-2.191l2.964 3.158c-1.804 1.332-3.695 2.341-5.671 3.029-1.934.644-4.06.966-6.38.966ZM309.066 36.74h21.589c-.257-1.933-.902-3.651-1.933-5.155-.988-1.547-2.234-2.75-3.738-3.61-1.503-.901-3.158-1.352-4.962-1.352-1.847 0-3.545.43-5.091 1.288-1.547.86-2.836 2.063-3.867 3.61-1.031 1.503-1.697 3.243-1.998 5.22Zm33.025 18.496V22.95h4.769v3.802c2.535-2.964 5.929-4.446 10.183-4.446 2.449 0 4.597.537 6.444 1.61a10.759 10.759 0 0 1 4.382 4.383c1.075 1.848 1.612 4.017 1.612 6.51v20.428h-4.705V35.774c0-2.879-.816-5.134-2.449-6.767-1.589-1.676-3.781-2.513-6.573-2.513-1.934 0-3.652.43-5.156 1.289-1.504.859-2.749 2.083-3.738 3.673v23.78h-4.769ZM183.89 120.39c-3.266 0-6.316-.58-9.152-1.74-2.835-1.203-5.327-2.857-7.475-4.962a23.59 23.59 0 0 1-5.027-7.411c-1.16-2.836-1.74-5.886-1.74-9.151 0-3.266.58-6.295 1.74-9.087 1.203-2.836 2.879-5.306 5.027-7.411a22.526 22.526 0 0 1 7.475-4.963c2.836-1.203 5.886-1.804 9.152-1.804 2.363 0 4.618.3 6.766.902a22.24 22.24 0 0 1 6.058 2.513 20.602 20.602 0 0 1 5.027 3.996l-3.287 3.48c-1.761-2.02-3.931-3.566-6.509-4.64a20.051 20.051 0 0 0-8.055-1.675c-2.621 0-5.049.472-7.283 1.417a17.774 17.774 0 0 0-5.864 3.996c-1.633 1.675-2.922 3.652-3.867 5.929-.902 2.234-1.353 4.683-1.353 7.347 0 2.62.451 5.069 1.353 7.346a18.86 18.86 0 0 0 3.931 5.994 18.291 18.291 0 0 0 5.865 3.931c2.277.945 4.726 1.418 7.347 1.418 2.792 0 5.456-.537 7.991-1.611 2.535-1.118 4.661-2.643 6.38-4.576l3.222 3.351a24.323 24.323 0 0 1-5.091 3.996 24.05 24.05 0 0 1-5.993 2.577 26.256 26.256 0 0 1-6.638.838Zm34.522-.129c-2.363 0-4.447-.408-6.252-1.224-1.761-.816-3.157-1.955-4.188-3.416-.989-1.46-1.483-3.157-1.483-5.091 0-3.05 1.16-5.456 3.48-7.218 2.32-1.761 5.457-2.642 9.409-2.642 3.48 0 6.638.73 9.474 2.191v-4.253c0-2.578-.731-4.511-2.191-5.8-1.461-1.332-3.588-1.998-6.38-1.998-1.59 0-3.201.236-4.834.709-1.589.43-3.351 1.138-5.284 2.126l-1.805-3.673c2.32-1.117 4.468-1.933 6.445-2.449a23.402 23.402 0 0 1 5.929-.773c4.081 0 7.218.967 9.409 2.9 2.234 1.933 3.351 4.704 3.351 8.313v21.718h-4.64v-3.157a15.733 15.733 0 0 1-4.834 2.835c-1.718.602-3.587.902-5.606.902Zm-7.347-9.86c0 1.805.752 3.287 2.255 4.447 1.547 1.117 3.523 1.676 5.929 1.676 1.934 0 3.695-.301 5.285-.903 1.59-.601 3.029-1.546 4.318-2.835v-6.058a13.554 13.554 0 0 0-4.254-1.933c-1.503-.43-3.2-.645-5.091-.645-2.578 0-4.64.58-6.187 1.74-1.503 1.117-2.255 2.621-2.255 4.511Zm30.394 9.28V74.57l4.769-1.096V90.81c2.749-2.62 6.208-3.931 10.375-3.931 3.051 0 5.8.752 8.249 2.255a15.992 15.992 0 0 1 5.8 5.93c1.461 2.491 2.192 5.305 2.192 8.442 0 3.136-.731 5.972-2.192 8.506a16.5 16.5 0 0 1-5.8 5.994c-2.449 1.461-5.22 2.191-8.313 2.191-1.89 0-3.738-.322-5.542-.967a16.425 16.425 0 0 1-4.834-2.771v3.222h-4.704Zm14.693-3.673c2.277 0 4.318-.537 6.123-1.611a12.063 12.063 0 0 0 4.253-4.447c1.074-1.89 1.611-4.017 1.611-6.38 0-2.363-.537-4.49-1.611-6.38-1.031-1.89-2.449-3.373-4.253-4.447-1.805-1.117-3.846-1.675-6.123-1.675-2.019 0-3.909.408-5.671 1.224-1.718.773-3.136 1.87-4.253 3.287v15.982c1.117 1.375 2.556 2.471 4.318 3.287 1.761.773 3.63 1.16 5.606 1.16Zm23.319 3.673V87.394h4.769v32.287h-4.769Zm2.385-38.473c-.859 0-1.611-.323-2.256-.967-.644-.644-.966-1.396-.966-2.256 0-.902.322-1.654.966-2.255.645-.645 1.397-.967 2.256-.967.902 0 1.654.322 2.255.967.645.601.967 1.353.967 2.255 0 .86-.322 1.612-.967 2.256-.601.644-1.353.967-2.255.967Zm10.517 38.473V87.394h4.769v3.803c2.535-2.965 5.929-4.447 10.182-4.447 2.449 0 4.597.537 6.445 1.611a10.764 10.764 0 0 1 4.382 4.382c1.074 1.848 1.611 4.017 1.611 6.51v20.428h-4.704v-19.462c0-2.879-.817-5.134-2.449-6.767-1.59-1.675-3.781-2.513-6.574-2.513-1.933 0-3.652.43-5.155 1.289-1.504.859-2.75 2.084-3.738 3.673v23.78h-4.769Zm50.514.58c-3.093 0-5.908-.73-8.442-2.191-2.492-1.503-4.49-3.523-5.994-6.058-1.461-2.534-2.191-5.37-2.191-8.506 0-3.094.709-5.886 2.127-8.378 1.418-2.535 3.329-4.533 5.735-5.994 2.406-1.503 5.092-2.255 8.056-2.255 2.879 0 5.456.752 7.733 2.255 2.32 1.461 4.146 3.459 5.478 5.994 1.375 2.492 2.063 5.284 2.063 8.378v1.482h-26.487c.257 2.105.923 3.995 1.997 5.671a12.43 12.43 0 0 0 4.318 3.996c1.762.945 3.695 1.417 5.8 1.417 1.676 0 3.308-.257 4.898-.773 1.59-.515 2.922-1.246 3.996-2.191l2.964 3.158c-1.804 1.332-3.695 2.341-5.671 3.029-1.933.644-4.06.966-6.38.966Zm-11.794-19.075h21.59c-.258-1.934-.903-3.652-1.934-5.156-.988-1.547-2.234-2.75-3.738-3.609-1.503-.902-3.157-1.353-4.962-1.353-1.847 0-3.544.43-5.091 1.289-1.547.859-2.836 2.062-3.867 3.609-1.031 1.503-1.697 3.243-1.998 5.22Zm44.777 19.14c-2.792 0-4.941-.666-6.444-1.998-1.504-1.332-2.256-3.265-2.256-5.8V91.454h-6.96v-4.06h6.96V79.21l4.705-1.225v9.41h9.731v4.06h-9.731v19.848c0 1.719.386 2.965 1.16 3.738.773.731 2.04 1.096 3.802 1.096.902 0 1.697-.065 2.384-.193a13.527 13.527 0 0 0 2.32-.645v4.189c-.816.301-1.74.516-2.771.644-.988.129-1.955.194-2.9.194Zm46.792.064c-3.265 0-6.315-.601-9.151-1.804a24.142 24.142 0 0 1-7.411-4.962 24.147 24.147 0 0 1-4.962-7.412c-1.203-2.835-1.805-5.864-1.805-9.086 0-3.223.58-6.23 1.74-9.023 1.203-2.835 2.857-5.306 4.963-7.411a23.576 23.576 0 0 1 7.411-5.027c2.835-1.203 5.886-1.804 9.151-1.804 3.48 0 6.767.644 9.86 1.933 3.093 1.29 5.736 3.115 7.927 5.478l-3.351 3.416c-1.719-1.977-3.867-3.502-6.445-4.576a19.602 19.602 0 0 0-7.991-1.675c-2.578 0-4.984.472-7.218 1.417a17.972 17.972 0 0 0-5.8 3.996c-1.633 1.675-2.921 3.652-3.867 5.929-.902 2.234-1.353 4.683-1.353 7.347 0 2.62.451 5.069 1.353 7.346.946 2.277 2.234 4.275 3.867 5.994a18.488 18.488 0 0 0 5.8 3.931c2.234.945 4.64 1.418 7.218 1.418 3.05 0 5.8-.666 8.249-1.998 2.492-1.332 4.49-3.158 5.993-5.478 1.547-2.32 2.449-4.941 2.707-7.862h-16.176v-4.383h21.203v1.998c0 3.137-.559 6.058-1.676 8.765-1.117 2.706-2.664 5.069-4.64 7.089-1.976 2.019-4.296 3.609-6.96 4.769-2.664 1.117-5.542 1.675-8.636 1.675Zm41.058-.064c-2.449 0-4.619-.516-6.509-1.547-1.891-1.074-3.373-2.535-4.447-4.382-1.031-1.891-1.547-4.082-1.547-6.574V87.394h4.705v19.463c0 2.878.816 5.155 2.449 6.831 1.632 1.633 3.823 2.449 6.573 2.449 1.933 0 3.652-.43 5.156-1.289 1.546-.902 2.792-2.148 3.737-3.738V87.394h4.769v32.287h-4.769v-3.737c-2.534 2.921-5.907 4.382-10.117 4.382Zm24.349 13.147c-.602 0-1.182-.043-1.74-.129a8.235 8.235 0 0 1-1.289-.194v-4.317c.73.171 1.632.257 2.706.257 2.836 0 4.984-1.675 6.445-5.026l1.933-4.447-13.146-32.223h5.284l10.44 26.487 11.278-26.487h5.156l-16.112 37.314c-.902 2.062-1.869 3.738-2.9 5.027-1.031 1.289-2.212 2.234-3.544 2.835-1.289.602-2.793.903-4.511.903Zm41.809-13.147c-2.663 0-5.177-.43-7.54-1.289-2.32-.902-4.339-2.148-6.057-3.738l2.9-3.093a17.555 17.555 0 0 0 4.962 3.222 14.654 14.654 0 0 0 5.542 1.096c2.578 0 4.683-.537 6.316-1.612 1.632-1.074 2.449-2.47 2.449-4.189 0-1.417-.494-2.513-1.483-3.286-.945-.817-2.448-1.375-4.511-1.676l-5.606-.773c-3.223-.473-5.629-1.439-7.218-2.9-1.547-1.461-2.32-3.437-2.32-5.93 0-1.804.515-3.415 1.546-4.832 1.031-1.418 2.449-2.535 4.254-3.352 1.847-.816 3.952-1.224 6.315-1.224 2.363 0 4.576.344 6.638 1.031 2.062.687 4.082 1.761 6.058 3.222l-2.513 3.222c-1.805-1.245-3.566-2.148-5.285-2.706a15.146 15.146 0 0 0-5.155-.902c-2.235 0-4.039.494-5.414 1.482s-2.062 2.277-2.062 3.867c0 1.46.473 2.577 1.418 3.35.945.731 2.47 1.247 4.575 1.547l5.607.774c3.222.429 5.628 1.375 7.218 2.835 1.633 1.461 2.449 3.459 2.449 5.994 0 1.847-.58 3.523-1.74 5.026-1.16 1.504-2.728 2.686-4.705 3.545-1.933.859-4.146 1.289-6.638 1.289Z" fill="#151515"/><mask id="a" style="mask-type:alpha" maskUnits="userSpaceOnUse" x="0" y="0" width="113" height="130"><path fill="#D9D9D9" d="M0 0h112.779v129.838H0z"/></mask><g mask="url(#a)"><path fill="#EDEDED" d="M0 0h112.779v129.838H0z"/><path d="M0 0h71.08L36.96 48.334 0 84.347V0Z" fill="#342F28"/><path d="M60.18 21.797 94.298 0h18.481v129.838H70.132L37.335 58.803 60.18 21.797Z" fill="#F37021"/><path fill="#fff" d="m106.858-39.806 14.86 14.625-123.38 125.366-14.861-14.625z"/><path fill="#fff" d="M98.656 133.64 82.43 146.734 18.955 68.057l16.227-13.092z"/></g></svg>