<svg width="50" height="50" fill="none" xmlns="http://www.w3.org/2000/svg"><circle cx="25" cy="25" r="25" fill="#F6F3EC"/><path d="M28.941 19.202a30.474 30.474 0 0 1-3.941.242 30.8 30.8 0 0 1-3.941-.242C18.19 21.642 15 25.717 15 29.417c0 5.818 4.477 8.552 10 8.552s10-2.734 10-8.552c0-3.727-3.19-7.775-6.059-10.215Zm-3.19 13.673v1.1c0 .107-.08.214-.215.214h-1.072a.211.211 0 0 1-.215-.215v-1.072c-1.072-.08-1.957-.911-2.064-1.984a.23.23 0 0 1 .215-.214h1.072c.107 0 .188.053.214.16.054.322.376.564.697.564h.939c.563 0 1.072-.402 1.126-.939a1.051 1.051 0 0 0-1.046-1.18h-.697c-1.314 0-2.493-.965-2.627-2.305-.134-1.394.858-2.574 2.198-2.761V23.17a.23.23 0 0 1 .215-.214h1.072c.107 0 .215.08.215.214v1.073c1.072.08 1.957.911 2.064 1.984 0 .107-.08.214-.215.214h-1.072c-.08 0-.188-.054-.215-.16a.748.748 0 0 0-.723-.564h-.939c-.563 0-1.045.402-1.126.939-.053.643.43 1.18 1.046 1.18h.804c1.502 0 2.681 1.26 2.52 2.787-.107 1.18-1.045 2.065-2.171 2.252ZM25 17.862c1.287 0 2.52-.08 3.646-.214.75-1.61 1.421-3.245 1.421-3.968 0-1.073-1.367-1.636-2.172-.483-1.072 1.501-1.555-.697-2.788-.697-1.233 0-1.876 2.037-2.842.67-.884-1.233-2.359-.482-2.359.483 0 .938.617 2.52 1.314 3.995 1.153.134 2.44.214 3.78.214Z" fill="#F37021"/></svg>