<svg width="126" height="22" fill="none" xmlns="http://www.w3.org/2000/svg"><path d="M10.129 1.546a1 1 0 0 1 1.742 0l2.396 4.25a1 1 0 0 0 .673.489l4.783.965a1 1 0 0 1 .538 1.657l-3.302 3.592a1 1 0 0 0-.257.791l.56 4.847a1 1 0 0 1-1.41 1.024l-4.436-2.03a1 1 0 0 0-.832 0l-4.436 2.03a1 1 0 0 1-1.41-1.024l.56-4.847a1 1 0 0 0-.257-.791L1.739 8.907a1 1 0 0 1 .539-1.657l4.782-.965a1 1 0 0 0 .673-.49l2.396-4.25Zm26 0a1 1 0 0 1 1.742 0l2.396 4.25a1 1 0 0 0 .673.489l4.782.965a1 1 0 0 1 .539 1.657l-3.302 3.592a1 1 0 0 0-.257.791l.56 4.847a1 1 0 0 1-1.41 1.024l-4.436-2.03a1 1 0 0 0-.832 0l-4.436 2.03a1 1 0 0 1-1.41-1.024l.56-4.847a1 1 0 0 0-.257-.791l-3.302-3.592a1 1 0 0 1 .538-1.657l4.783-.965a1 1 0 0 0 .673-.49l2.396-4.25Zm26 0a1 1 0 0 1 1.742 0l2.396 4.25a1 1 0 0 0 .673.489l4.782.965a1 1 0 0 1 .539 1.657l-3.302 3.592a1 1 0 0 0-.257.791l.56 4.847a1 1 0 0 1-1.41 1.024l-4.436-2.03a1 1 0 0 0-.832 0l-4.436 2.03a1 1 0 0 1-1.41-1.024l.56-4.847a1 1 0 0 0-.257-.791l-3.302-3.592a1 1 0 0 1 .539-1.657l4.782-.965a1 1 0 0 0 .673-.49l2.396-4.25Zm26 0a1 1 0 0 1 1.742 0l2.396 4.25a1 1 0 0 0 .673.489l4.782.965a1 1 0 0 1 .539 1.657l-3.302 3.592a1 1 0 0 0-.257.791l.56 4.847a1 1 0 0 1-1.41 1.024l-4.436-2.03a1 1 0 0 0-.832 0l-4.436 2.03a1 1 0 0 1-1.41-1.024l.56-4.847a1 1 0 0 0-.257-.791l-3.302-3.592a1 1 0 0 1 .538-1.657l4.783-.965a1 1 0 0 0 .673-.49l2.396-4.25Zm26 0a1 1 0 0 1 1.742 0l2.396 4.25a.998.998 0 0 0 .673.489l4.782.965a1 1 0 0 1 .539 1.657l-3.302 3.592a.997.997 0 0 0-.257.791l.56 4.847a1 1 0 0 1-1.41 1.024l-4.436-2.03a.999.999 0 0 0-.832 0l-4.436 2.03a1 1 0 0 1-1.41-1.024l.56-4.847a.997.997 0 0 0-.257-.791l-3.302-3.592a1 1 0 0 1 .539-1.657l4.782-.965a.998.998 0 0 0 .673-.49l2.396-4.25Z" fill="#FFD80C"/></svg>